<svg xmlns="http://www.w3.org/2000/svg" xml:space="preserve" width="2000" height="281" data-id="lg_8upJf098LACAI5HJzz" data-version="1" viewBox="0 0 2000 281"><g data-padding="20"><g transform="translate(10 3.526)scale(.9749)"><path fill="#f8643d" fill-rule="evenodd" d="M859.274 262.61a32.37 32.37 0 0 0-31.922 0c-59.137 33.839-134.027 20.433-177.756-31.82-43.73-52.25-43.73-128.33 0-180.58 43.73-52.253 118.616-65.659 177.756-31.82a32.37 32.37 0 0 0 31.922 0c20.592-11.827 44.47-18.575 69.92-18.575 25.447 0 49.45 6.798 70.068 18.675a32.37 32.37 0 0 0 32.02 0c20.643-11.877 44.572-18.675 70.07-18.675s49.426 6.798 70.068 18.675a32.37 32.37 0 0 0 32.022 0c59.135-33.946 134.1-20.602 177.885 31.668 43.787 52.27 43.787 128.414 0 180.684-43.784 52.27-118.75 65.614-177.885 31.668a32.37 32.37 0 0 0-32.022 0c-20.642 11.877-44.57 18.675-70.068 18.675s-49.452-6.798-70.07-18.675a32.37 32.37 0 0 0-32.02 0c-20.642 11.877-44.571 18.675-70.07 18.675-25.496 0-49.326-6.748-69.918-18.575"/><rect width="412" height="160.46" x="408.352" y="-343.04" fill="none" rx="0" ry="0" transform="translate(400.5 400.5)"/><path fill="#0f5260" d="M845.262 179.95q5.83 0 10.8-1.92 4.97-1.91 8.09-6.24t3.12-11.58q0-5.96-3.55-10.43-3.55-4.48-9.16-8.1-5.6-3.62-11.85-7.17t-11.86-7.67q-5.61-4.11-9.16-9.51t-3.55-12.78q0-7.1 3.76-12.35 3.77-5.26 10.09-8.17t13.98-2.91q6.96 0 14.13 1.7 7.17 1.71 12 4.12 0 6.68-.71 12.92-.71 6.25-1.42 11.51l-2.13-.57q0-9.8-3.34-15.62-3.33-5.82-8.37-8.38t-10.01-2.56q-8.24 0-13.35 4.9t-5.11 12.43q0 6.25 3.55 10.65t9.15 7.88q5.61 3.48 11.86 6.81 6.25 3.34 11.86 7.32 5.61 3.97 9.16 9.44t3.55 13.14q0 9.37-4.62 15.19-4.61 5.82-11.85 8.52-7.25 2.7-15.2 2.7-4.4 0-9.44-.93-5.04-.92-9.73-2.91-4.68-1.98-8.09-5.11 0-6.67.57-12.21.56-5.54 1.13-10.79l2.13.42q0 9.66 3.27 15.98 3.26 6.32 8.66 9.3t11.64 2.98m61.2-82.5 3.12-.28v17.46h17.47v3.13h-17.47v54.1q0 3.12 1.42 4.83 1.42 1.7 3.69 1.7 2.84 0 5.68-.78t6.39-2.2l.29 1.56q-3.98 2.56-8.38 4.4-4.4 1.85-9.23 1.85-4.69 0-7.24-2.27-2.56-2.28-2.56-8.52v-54.67h-8.52v-3.13q5.68 0 8.66-2.34t4.4-6.32 2.28-8.52m86.48 48.42h-46.57v2.42q0 10.65 3.12 17.46 3.13 6.82 8.24 10.08 5.11 3.27 10.93 3.27 5.97 0 11.57-2.63 5.61-2.62 8.88-8.73l2.13 1.14q-3.98 7.81-10.58 11.07-6.6 3.27-14.13 3.27-7.95 0-15.05-3.91-7.1-3.9-11.5-11.71t-4.4-19.31q0-9.66 3.55-17.61t10.15-12.71 15.97-4.76q9.23 0 15.34 4.4 6.11 4.41 9.23 11.79t3.12 16.47m-27.54-29.82q-8.67 0-13.21 7.39-4.54 7.38-5.54 18.31h35.36q-.43-11.64-4.26-18.67t-12.35-7.03m60.63-38.76v79.8q0 7.81.28 12.42.29 4.62 1.49 6.89 1.21 2.27 3.63 2.98 2.41.71 6.67.71l.28 1.71h-34.79l.29-1.71q4.4 0 6.88-.71 2.49-.71 3.63-2.98 1.13-2.27 1.42-6.89.28-4.61.28-12.42v-54.24q0-7.67-.28-12.22-.29-4.54-1.42-6.67-1.14-2.13-3.63-2.77-2.48-.64-6.88-.64l-.29-1.56 3.13-.43q3.12-.42 8.3-.85 5.19-.42 11.01-.42m42.59 0v79.8q0 7.81.28 12.42.29 4.62 1.49 6.89 1.21 2.27 3.63 2.98 2.41.71 6.67.71l.28 1.71h-34.79l.29-1.71q4.4 0 6.88-.71 2.49-.71 3.63-2.98 1.13-2.27 1.42-6.89.28-4.61.28-12.42v-54.24q0-7.67-.28-12.22-.29-4.54-1.42-6.67-1.14-2.13-3.63-2.77-2.48-.64-6.88-.64l-.29-1.56 3.13-.43q3.12-.42 8.3-.85 5.19-.42 11.01-.42m75.13 58.64v14.34q0 10.09.35 15.62.36 5.54 1.64 7.74 1.27 2.2 3.83 2.2 1.85 0 3.41-.64 1.56-.63 2.98-1.34l.71 1.42-2.84 1.77q-2.84 1.78-7.74 3.62-4.9 1.85-10.86 1.85-.57-2.7-1-7.95-.42-5.26-.42-11.08-1.56 4.69-4.19 9.23t-7.03 7.53q-4.4 2.98-11.36 2.98-8.38 0-13.63-4.69-5.26-4.68-5.26-13.06 0-6.82 4.12-12t13.21-8.1q9.09-2.91 24.14-2.91v-5.11q0-6.1-1.07-10.86-1.06-4.76-4.12-7.46-3.05-2.69-8.87-2.69-3.98 0-6.25 1.49t-3.62 3.62-2.34 4.33q-1 2.2-2.35 3.69-1.34 1.49-3.76 1.49-4.83 0-4.83-4.83 0-4.11 3.41-6.95t8.88-4.41q5.46-1.56 11.43-1.56 10.08 0 16.75 5.47 6.68 5.47 6.68 17.25m-30.25 42.89q5.54 0 9.37-3.27 3.84-3.27 6.18-8.38t3.48-10.86 1.28-10.58q-11.22.14-17.97 2.98-6.74 2.84-9.72 7.39-2.98 4.54-2.98 9.94 0 5.25 2.55 9.01 2.56 3.77 7.81 3.77m96.14-66.32q3.26 0 6.1 1.49t2.84 4.33-1.84 4.33q-1.85 1.5-3.84 1.5-2.13 0-3.62-.93-1.49-.92-3.27-1.84-1.77-.93-5.04-.93-3.83 0-6.67 4.9t-4.33 12.71-1.49 16.33q0 8.95.35 14.2.36 5.26 1.49 7.67 1.14 2.41 3.55 3.12 2.42.71 6.68.71l.28 1.71h-34.5l.28-1.71q4.12 0 6.53-.71 2.42-.71 3.55-3.12 1.14-2.41 1.49-7.67.36-5.25.36-14.2v-8.23q0-10.37-.36-16.41-.35-6.03-1.7-8.87t-4.12-3.62-7.6-.78l-.28-1.56 3.55-.43q3.55-.43 9.02-.85 5.46-.43 11.43-.43v20.88q1.56-10.09 7.03-15.84 5.46-5.75 14.13-5.75"/></g><path fill="transparent" stroke="transparent" d="M601.5 0h797v281h-797z"/></g></svg>